<svg width="2457" height="277" viewBox="0 0 2457 277" fill="none" xmlns="http://www.w3.org/2000/svg">
<mask id="mask0_15_4" style="mask-type:alpha" maskUnits="userSpaceOnUse" x="0" y="0" width="2457" height="277">
<rect width="2457" height="277" fill="#D9D9D9"/>
</mask>
<g mask="url(#mask0_15_4)">
<path d="M97.94 278.2C80.58 278.2 64.34 276.94 49.22 274.42C34.38 271.9 21.5 268.26 10.58 263.5V213.52C22.9 218.56 36.2 222.62 50.48 225.7C64.76 228.78 78.76 230.32 92.48 230.32C112.08 230.32 126.5 228.5 135.74 224.86C144.98 221.22 149.6 212.96 149.6 200.08C149.6 191.96 147.64 185.52 143.72 180.76C139.8 176 132.94 171.8 123.14 168.16C113.62 164.24 100.04 159.9 82.4 155.14C54.12 147.3 34.24 137.5 22.76 125.74C11.28 113.98 5.54 97.74 5.54 77.02C5.54 52.1 14.64 32.92 32.84 19.48C51.04 6.03999 77.5 -0.680018 112.22 -0.680018C128.46 -0.680018 143.58 0.439984 157.58 2.67999C171.58 4.91999 182.92 7.57999 191.6 10.66V60.64C168.64 51.96 144.7 47.62 119.78 47.62C102.14 47.62 88.28 49.58 78.2 53.5C68.12 57.14 63.08 64.98 63.08 77.02C63.08 84.02 64.9 89.62 68.54 93.82C72.18 98.02 78.34 101.8 87.02 105.16C95.98 108.52 108.44 112.3 124.4 116.5C146.52 122.38 163.6 129.38 175.64 137.5C187.68 145.62 195.94 154.86 200.42 165.22C205.18 175.58 207.56 187.2 207.56 200.08C207.56 223.6 198.6 242.5 180.68 256.78C162.76 271.06 135.18 278.2 97.94 278.2ZM246.909 274V3.51998H303.609V116.92H421.629V3.51998H478.329V274H421.629V160.6H303.609V274H246.909ZM526.225 274V3.51998H582.925V274H526.225ZM630.815 274V3.51998H821.075V47.62H687.515V116.92H805.535V160.6H687.515V274H630.815ZM810.267 274L913.587 3.51998H975.747L1078.65 274H1019.85L994.227 208.9H894.687L869.487 274H810.267ZM903.087 165.22H985.827L944.247 56.44L903.087 165.22Z" fill="#397269"/>
<path d="M1178.28 274.6C1164.95 274.6 1154.23 272.893 1146.12 269.48V254.12C1150.71 255.827 1155.61 257.213 1160.84 258.28C1166.17 259.347 1171.45 259.88 1176.68 259.88C1184.89 259.88 1191.03 258.92 1195.08 257C1199.24 255.08 1201.32 251.24 1201.32 245.48C1201.32 241.96 1200.47 239.133 1198.76 237C1197.05 234.867 1194.23 233.053 1190.28 231.56C1186.33 229.96 1180.89 228.307 1173.96 226.6C1162.87 223.72 1155.08 220.093 1150.6 215.72C1146.12 211.24 1143.88 205.107 1143.88 197.32C1143.88 188.253 1147.19 181.16 1153.8 176.04C1160.41 170.92 1170.28 168.36 1183.4 168.36C1189.37 168.36 1194.97 168.787 1200.2 169.64C1205.53 170.493 1209.69 171.453 1212.68 172.52V187.88C1204.57 184.787 1195.61 183.24 1185.8 183.24C1178.12 183.24 1172.15 184.253 1167.88 186.28C1163.61 188.307 1161.48 191.987 1161.48 197.32C1161.48 200.413 1162.23 202.92 1163.72 204.84C1165.21 206.76 1167.77 208.413 1171.4 209.8C1175.13 211.187 1180.25 212.733 1186.76 214.44C1195.19 216.573 1201.69 219.133 1206.28 222.12C1210.97 225 1214.23 228.413 1216.04 232.36C1217.96 236.2 1218.92 240.573 1218.92 245.48C1218.92 254.547 1215.56 261.693 1208.84 266.92C1202.12 272.04 1191.93 274.6 1178.28 274.6ZM1235.83 273V169.96H1281.75C1289.64 169.96 1296.15 171.453 1301.27 174.44C1306.39 177.427 1310.18 181.533 1312.63 186.76C1315.08 191.88 1316.31 197.747 1316.31 204.36C1316.31 214.6 1313.11 222.813 1306.71 229C1300.42 235.187 1291.88 238.28 1281.11 238.28H1253.27V273H1235.83ZM1253.27 224.52H1277.91C1284.84 224.52 1290.07 222.707 1293.59 219.08C1297.11 215.453 1298.87 210.547 1298.87 204.36C1298.87 197.747 1297.16 192.627 1293.75 189C1290.44 185.373 1285.43 183.56 1278.71 183.56H1253.27V224.52ZM1330.21 273V169.96H1402.05V183.56H1347.65V214.76H1396.13V228.2H1347.65V259.56H1402.05V273H1330.21ZM1464.93 274.6C1447.97 274.6 1435.12 269.96 1426.37 260.68C1417.73 251.4 1413.41 238.867 1413.41 223.08C1413.41 211.773 1415.22 202.067 1418.85 193.96C1422.58 185.747 1428.24 179.453 1435.81 175.08C1443.38 170.6 1453.04 168.36 1464.77 168.36C1470.74 168.36 1476.18 168.84 1481.09 169.8C1486.1 170.653 1490.74 171.827 1495.01 173.32V188.52C1490.74 186.813 1486.16 185.533 1481.25 184.68C1476.45 183.72 1471.38 183.24 1466.05 183.24C1453.25 183.24 1444.18 186.653 1438.85 193.48C1433.62 200.307 1431.01 210.173 1431.01 223.08C1431.01 235.133 1433.89 244.307 1439.65 250.6C1445.41 256.787 1454.32 259.88 1466.37 259.88C1471.28 259.88 1476.18 259.507 1481.09 258.76C1486.1 257.907 1490.8 256.627 1495.17 254.92V270.28C1490.9 271.667 1486.26 272.733 1481.25 273.48C1476.34 274.227 1470.9 274.6 1464.93 274.6ZM1512.08 273V169.96H1529.52V273H1512.08ZM1546.7 273L1586.06 169.96H1605.58L1644.62 273H1626.7L1616.46 246.44H1575.02L1564.78 273H1546.7ZM1577.74 233H1613.58L1595.66 185.8L1577.74 233ZM1661.77 273V169.96H1679.21V259.56H1732.01V273H1661.77ZM1745.83 273V169.96H1763.27V273H1745.83ZM1810.21 273V183.56H1777.25V169.96H1860.45V183.56H1827.65V273H1810.21ZM1906.62 273V234.76L1869.66 169.96H1887.74L1915.26 220.04L1942.78 169.96H1960.86L1923.9 234.76V273H1906.62ZM2063.06 274.6C2046.1 274.6 2033.24 269.96 2024.5 260.68C2015.86 251.4 2011.54 238.867 2011.54 223.08C2011.54 211.773 2013.35 202.067 2016.98 193.96C2020.71 185.747 2026.36 179.453 2033.94 175.08C2041.51 170.6 2051.16 168.36 2062.9 168.36C2068.87 168.36 2074.31 168.84 2079.22 169.8C2084.23 170.653 2088.87 171.827 2093.14 173.32V188.52C2088.87 186.813 2084.28 185.533 2079.38 184.68C2074.58 183.72 2069.51 183.24 2064.18 183.24C2051.38 183.24 2042.31 186.653 2036.98 193.48C2031.75 200.307 2029.14 210.173 2029.14 223.08C2029.14 235.133 2032.02 244.307 2037.78 250.6C2043.54 256.787 2052.44 259.88 2064.5 259.88C2069.4 259.88 2074.31 259.507 2079.22 258.76C2084.23 257.907 2088.92 256.627 2093.3 254.92V270.28C2089.03 271.667 2084.39 272.733 2079.38 273.48C2074.47 274.227 2069.03 274.6 2063.06 274.6ZM2110.21 273V169.96H2127.65V259.56H2180.45V273H2110.21ZM2194.27 273V169.96H2211.71V273H2194.27ZM2231.92 273V169.96H2247.28L2301.04 245.8V169.96H2318.32V273H2302.96L2249.36 197.32V273H2231.92ZM2338.64 273V169.96H2356.08V273H2338.64ZM2424.62 274.6C2407.66 274.6 2394.81 269.96 2386.06 260.68C2377.42 251.4 2373.1 238.867 2373.1 223.08C2373.1 211.773 2374.91 202.067 2378.54 193.96C2382.27 185.747 2387.93 179.453 2395.5 175.08C2403.07 170.6 2412.73 168.36 2424.46 168.36C2430.43 168.36 2435.87 168.84 2440.78 169.8C2445.79 170.653 2450.43 171.827 2454.7 173.32V188.52C2450.43 186.813 2445.85 185.533 2440.94 184.68C2436.14 183.72 2431.07 183.24 2425.74 183.24C2412.94 183.24 2403.87 186.653 2398.54 193.48C2393.31 200.307 2390.7 210.173 2390.7 223.08C2390.7 235.133 2393.58 244.307 2399.34 250.6C2405.1 256.787 2414.01 259.88 2426.06 259.88C2430.97 259.88 2435.87 259.507 2440.78 258.76C2445.79 257.907 2450.49 256.627 2454.86 254.92V270.28C2450.59 271.667 2445.95 272.733 2440.94 273.48C2436.03 274.227 2430.59 274.6 2424.62 274.6Z" fill="#397269"/>
<path d="M1147.71 114V4.51999H1166.24V52.12H1218.94V4.51999H1237.47V114H1218.94V66.4H1166.24V114H1147.71ZM1315.89 115.7C1298.55 115.7 1285.57 111.167 1276.96 102.1C1268.35 92.92 1264.04 78.7533 1264.04 59.6C1264.04 39.6533 1268.35 25.2033 1276.96 16.25C1285.57 7.29666 1298.55 2.81999 1315.89 2.81999C1333.34 2.81999 1346.32 7.29666 1354.82 16.25C1363.43 25.2033 1367.74 39.6533 1367.74 59.6C1367.74 78.7533 1363.43 92.92 1354.82 102.1C1346.32 111.167 1333.34 115.7 1315.89 115.7ZM1315.89 100.06C1327.34 100.06 1335.72 96.9433 1341.05 90.71C1346.49 84.3633 1349.21 73.9933 1349.21 59.6C1349.21 44.4133 1346.49 33.8167 1341.05 27.81C1335.72 21.69 1327.34 18.63 1315.89 18.63C1304.56 18.63 1296.17 21.69 1290.73 27.81C1285.4 33.8167 1282.74 44.4133 1282.74 59.6C1282.74 73.9933 1285.4 84.3633 1290.73 90.71C1296.17 96.9433 1304.56 100.06 1315.89 100.06ZM1394.31 114V4.51999H1413.35L1448.03 75.41L1482.54 4.51999H1501.58V114H1483.22V34.61L1453.64 95.13H1442.42L1412.67 34.61V114H1394.31ZM1579.92 115.7C1562.58 115.7 1549.61 111.167 1540.99 102.1C1532.38 92.92 1528.07 78.7533 1528.07 59.6C1528.07 39.6533 1532.38 25.2033 1540.99 16.25C1549.61 7.29666 1562.58 2.81999 1579.92 2.81999C1597.38 2.81999 1610.35 7.29666 1618.85 16.25C1627.47 25.2033 1631.77 39.6533 1631.77 59.6C1631.77 78.7533 1627.47 92.92 1618.85 102.1C1610.35 111.167 1597.38 115.7 1579.92 115.7ZM1579.92 100.06C1591.37 100.06 1599.76 96.9433 1605.08 90.71C1610.52 84.3633 1613.24 73.9933 1613.24 59.6C1613.24 44.4133 1610.52 33.8167 1605.08 27.81C1599.76 21.69 1591.37 18.63 1579.92 18.63C1568.59 18.63 1560.2 21.69 1554.76 27.81C1549.44 33.8167 1546.77 44.4133 1546.77 59.6C1546.77 73.9933 1549.44 84.3633 1554.76 90.71C1560.2 96.9433 1568.59 100.06 1579.92 100.06ZM1658.34 114V4.51999H1734.67V18.97H1676.87V52.12H1728.38V66.4H1676.87V99.72H1734.67V114H1658.34ZM1807.1 115.7C1789.76 115.7 1776.78 111.167 1768.17 102.1C1759.55 92.92 1755.25 78.7533 1755.25 59.6C1755.25 39.6533 1759.55 25.2033 1768.17 16.25C1776.78 7.29666 1789.76 2.81999 1807.1 2.81999C1824.55 2.81999 1837.53 7.29666 1846.03 16.25C1854.64 25.2033 1858.95 39.6533 1858.95 59.6C1858.95 78.7533 1854.64 92.92 1846.03 102.1C1837.53 111.167 1824.55 115.7 1807.1 115.7ZM1807.1 100.06C1818.54 100.06 1826.93 96.9433 1832.26 90.71C1837.7 84.3633 1840.42 73.9933 1840.42 59.6C1840.42 44.4133 1837.7 33.8167 1832.26 27.81C1826.93 21.69 1818.54 18.63 1807.1 18.63C1795.76 18.63 1787.38 21.69 1781.94 27.81C1776.61 33.8167 1773.95 44.4133 1773.95 59.6C1773.95 73.9933 1776.61 84.3633 1781.94 90.71C1787.38 96.9433 1795.76 100.06 1807.1 100.06ZM1885.52 114V4.51999H1934.31C1942.69 4.51999 1949.61 6.10666 1955.05 9.27999C1960.49 12.4533 1964.51 16.8167 1967.12 22.37C1969.72 27.81 1971.03 34.0433 1971.03 41.07C1971.03 51.95 1967.63 60.6767 1960.83 67.25C1954.14 73.8233 1945.07 77.11 1933.63 77.11H1904.05V114H1885.52ZM1904.05 62.49H1930.23C1937.59 62.49 1943.15 60.5633 1946.89 56.71C1950.63 52.8567 1952.5 47.6433 1952.5 41.07C1952.5 34.0433 1950.68 28.6033 1947.06 24.75C1943.54 20.8967 1938.22 18.97 1931.08 18.97H1904.05V62.49ZM1977.45 114L2019.27 4.51999H2040.01L2081.49 114H2062.45L2051.57 85.78H2007.54L1996.66 114H1977.45ZM2010.43 71.5H2048.51L2029.47 21.35L2010.43 71.5ZM2122.16 114V18.97H2087.14V4.51999H2175.54V18.97H2140.69V114H2122.16ZM2198.89 114V4.51999H2217.42V52.12H2270.12V4.51999H2288.65V114H2270.12V66.4H2217.42V114H2198.89ZM2318.62 114V4.51999H2337.15V114H2318.62ZM2418.47 115.7C2400.45 115.7 2386.79 110.77 2377.5 100.91C2368.32 91.05 2363.73 77.7333 2363.73 60.96C2363.73 48.9467 2365.65 38.6333 2369.51 30.02C2373.47 21.2933 2379.48 14.6067 2387.53 9.95999C2395.57 5.19999 2405.83 2.81999 2418.3 2.81999C2424.64 2.81999 2430.42 3.32999 2435.64 4.34999C2440.96 5.25666 2445.89 6.50333 2450.43 8.09V24.24C2445.89 22.4267 2441.02 21.0667 2435.81 20.16C2430.71 19.14 2425.32 18.63 2419.66 18.63C2406.06 18.63 2396.42 22.2567 2390.76 29.51C2385.2 36.7633 2382.43 47.2467 2382.43 60.96C2382.43 73.7667 2385.49 83.5133 2391.61 90.2C2397.73 96.7733 2407.19 100.06 2420 100.06C2425.21 100.06 2430.42 99.6633 2435.64 98.87C2440.96 97.9633 2445.95 96.6033 2450.6 94.79V111.11C2446.06 112.583 2441.13 113.717 2435.81 114.51C2430.59 115.303 2424.81 115.7 2418.47 115.7Z" fill="#397269"/>
</g>
</svg>
