<svg width="600" height="600" viewBox="0 0 600 600" fill="none" xmlns="http://www.w3.org/2000/svg">
<path d="M300 0C465.685 0 600 134.315 600 300C600 465.685 465.685 600 300 600C134.315 600 0 465.685 0 300C0 134.315 134.315 0 300 0ZM300.5 15C142.823 15 15 142.823 15 300.5C15 458.177 142.823 586 300.5 586C458.177 586 586 458.177 586 300.5C586 142.823 458.177 15 300.5 15Z" fill="#FF0000"/>
<path d="M300.5 15C458.177 15 586 142.823 586 300.5C586 458.177 458.177 586 300.5 586C142.823 586 15 458.177 15 300.5C15 142.823 142.823 15 300.5 15ZM300 33C152.54 33 33 152.54 33 300C33 447.46 152.54 567 300 567C447.46 567 567 447.46 567 300C567 152.54 447.46 33 300 33Z" fill="white"/>
<circle cx="300.5" cy="300.5" r="276.5" fill="#BFBFBF"/>
<path d="M562 300C562 444.699 444.699 562 300 562C155.301 562 38 444.699 38 300C38 155.301 155.301 38 300 38C444.699 38 562 155.301 562 300Z" fill="white"/>
<line x1="298" y1="70" x2="298" y2="531" stroke="#FF0000" stroke-width="100" stroke-linejoin="round"/>
<line x1="69" y1="300" x2="530" y2="300" stroke="#FF0000" stroke-width="100" stroke-linejoin="round"/>
</svg>
